<mxfile host="app.diagrams.net" modified="2024-02-05T03:58:37.653Z" agent="Mozilla/5.0 (Windows NT 10.0; Win64; x64) AppleWebKit/537.36 (KHTML, like Gecko) Chrome/121.0.0.0 Safari/537.36" etag="GWodfpxNZZMkBaumXqu7" version="23.1.1" type="device">
  <diagram name="Page-1" id="udvCW65GLaHVHVGrBcbs">
    <mxGraphModel dx="903" dy="557" grid="1" gridSize="10" guides="1" tooltips="1" connect="1" arrows="1" fold="1" page="1" pageScale="1" pageWidth="850" pageHeight="1100" background="#CCCCCC" math="0" shadow="0">
      <root>
        <mxCell id="0" />
        <mxCell id="1" parent="0" />
        <mxCell id="PTmdwTSmmHxyZHhgt3zp-11" value="" style="verticalLabelPosition=bottom;verticalAlign=top;html=1;shape=mxgraph.flowchart.on-page_reference;" vertex="1" parent="1">
          <mxGeometry x="380" y="440" width="130" height="130" as="geometry" />
        </mxCell>
        <mxCell id="PTmdwTSmmHxyZHhgt3zp-12" value="&lt;font style=&quot;font-size: 16px;&quot;&gt;CareConnect&lt;/font&gt;" style="text;html=1;strokeColor=none;fillColor=none;align=center;verticalAlign=middle;whiteSpace=wrap;rounded=0;" vertex="1" parent="1">
          <mxGeometry x="411.25" y="480" width="67.5" height="50" as="geometry" />
        </mxCell>
        <mxCell id="PTmdwTSmmHxyZHhgt3zp-13" value="" style="verticalLabelPosition=bottom;aspect=fixed;html=1;shape=mxgraph.salesforce.employees;" vertex="1" parent="1">
          <mxGeometry x="400" y="240" width="77.6" height="80" as="geometry" />
        </mxCell>
        <mxCell id="PTmdwTSmmHxyZHhgt3zp-14" value="" style="strokeWidth=2;html=1;shape=mxgraph.flowchart.database;whiteSpace=wrap;" vertex="1" parent="1">
          <mxGeometry x="650" y="450" width="100" height="140" as="geometry" />
        </mxCell>
        <mxCell id="PTmdwTSmmHxyZHhgt3zp-15" value="" style="strokeWidth=2;html=1;shape=mxgraph.flowchart.direct_data;whiteSpace=wrap;" vertex="1" parent="1">
          <mxGeometry x="615" y="270" width="170" height="80" as="geometry" />
        </mxCell>
        <mxCell id="PTmdwTSmmHxyZHhgt3zp-16" value="&lt;font style=&quot;font-size: 15px;&quot;&gt;Data Warehouse&lt;/font&gt;" style="text;html=1;strokeColor=none;fillColor=none;align=center;verticalAlign=middle;whiteSpace=wrap;rounded=0;" vertex="1" parent="1">
          <mxGeometry x="660" y="295" width="60" height="30" as="geometry" />
        </mxCell>
        <mxCell id="PTmdwTSmmHxyZHhgt3zp-17" value="&lt;font style=&quot;font-size: 14px;&quot;&gt;Operational&lt;br&gt;Transaction&lt;/font&gt;" style="text;html=1;strokeColor=none;fillColor=none;align=center;verticalAlign=middle;whiteSpace=wrap;rounded=0;" vertex="1" parent="1">
          <mxGeometry x="670" y="520" width="60" height="30" as="geometry" />
        </mxCell>
        <mxCell id="PTmdwTSmmHxyZHhgt3zp-26" value="" style="edgeStyle=segmentEdgeStyle;endArrow=classic;html=1;curved=0;rounded=0;endSize=8;startSize=8;" edge="1" parent="1" source="PTmdwTSmmHxyZHhgt3zp-13">
          <mxGeometry width="50" height="50" relative="1" as="geometry">
            <mxPoint x="380" y="290" as="sourcePoint" />
            <mxPoint x="377" y="510" as="targetPoint" />
            <Array as="points">
              <mxPoint x="340" y="290" />
              <mxPoint x="340" y="510" />
              <mxPoint x="377" y="510" />
            </Array>
          </mxGeometry>
        </mxCell>
        <mxCell id="PTmdwTSmmHxyZHhgt3zp-28" value="" style="edgeStyle=segmentEdgeStyle;endArrow=classic;html=1;curved=0;rounded=0;endSize=8;startSize=8;" edge="1" parent="1" source="PTmdwTSmmHxyZHhgt3zp-11">
          <mxGeometry width="50" height="50" relative="1" as="geometry">
            <mxPoint x="550" y="560" as="sourcePoint" />
            <mxPoint x="480" y="290" as="targetPoint" />
            <Array as="points">
              <mxPoint x="550" y="500" />
              <mxPoint x="550" y="290" />
            </Array>
          </mxGeometry>
        </mxCell>
        <mxCell id="PTmdwTSmmHxyZHhgt3zp-29" value="" style="verticalLabelPosition=bottom;aspect=fixed;html=1;shape=mxgraph.salesforce.social_studio;" vertex="1" parent="1">
          <mxGeometry x="60" y="475" width="60" height="60" as="geometry" />
        </mxCell>
        <mxCell id="PTmdwTSmmHxyZHhgt3zp-30" value="" style="edgeStyle=segmentEdgeStyle;endArrow=classic;html=1;curved=0;rounded=0;endSize=8;startSize=8;entryX=0;entryY=0.357;entryDx=0;entryDy=0;entryPerimeter=0;startArrow=classic;startFill=0;" edge="1" parent="1" target="PTmdwTSmmHxyZHhgt3zp-14">
          <mxGeometry width="50" height="50" relative="1" as="geometry">
            <mxPoint x="510" y="530" as="sourcePoint" />
            <mxPoint x="640" y="500" as="targetPoint" />
            <Array as="points">
              <mxPoint x="610" y="530" />
              <mxPoint x="610" y="500" />
            </Array>
          </mxGeometry>
        </mxCell>
        <mxCell id="PTmdwTSmmHxyZHhgt3zp-31" value="" style="edgeStyle=segmentEdgeStyle;endArrow=classic;html=1;curved=0;rounded=0;endSize=8;startSize=8;exitX=0;exitY=0.85;exitDx=0;exitDy=0;exitPerimeter=0;entryX=0.775;entryY=0.912;entryDx=0;entryDy=0;entryPerimeter=0;startArrow=blockThin;startFill=0;" edge="1" parent="1" source="PTmdwTSmmHxyZHhgt3zp-14" target="PTmdwTSmmHxyZHhgt3zp-11">
          <mxGeometry width="50" height="50" relative="1" as="geometry">
            <mxPoint x="640" y="570" as="sourcePoint" />
            <mxPoint x="480" y="570" as="targetPoint" />
            <Array as="points">
              <mxPoint x="590" y="569" />
              <mxPoint x="590" y="630" />
              <mxPoint x="481" y="630" />
            </Array>
          </mxGeometry>
        </mxCell>
        <mxCell id="PTmdwTSmmHxyZHhgt3zp-32" value="" style="edgeStyle=segmentEdgeStyle;endArrow=classic;html=1;curved=0;rounded=0;endSize=8;startSize=8;entryX=0.382;entryY=0.992;entryDx=0;entryDy=0;entryPerimeter=0;exitX=0.382;exitY=0.992;exitDx=0;exitDy=0;exitPerimeter=0;" edge="1" parent="1" source="PTmdwTSmmHxyZHhgt3zp-11">
          <mxGeometry width="50" height="50" relative="1" as="geometry">
            <mxPoint x="430" y="610" as="sourcePoint" />
            <mxPoint x="80" y="540" as="targetPoint" />
            <Array as="points">
              <mxPoint x="430" y="650" />
              <mxPoint x="80" y="650" />
            </Array>
          </mxGeometry>
        </mxCell>
        <mxCell id="PTmdwTSmmHxyZHhgt3zp-33" value="" style="edgeStyle=segmentEdgeStyle;endArrow=classic;html=1;curved=0;rounded=0;endSize=8;startSize=8;entryX=0.145;entryY=0.855;entryDx=0;entryDy=0;entryPerimeter=0;exitX=1.013;exitY=0.487;exitDx=0;exitDy=0;exitPerimeter=0;" edge="1" parent="1" source="PTmdwTSmmHxyZHhgt3zp-29" target="PTmdwTSmmHxyZHhgt3zp-11">
          <mxGeometry width="50" height="50" relative="1" as="geometry">
            <mxPoint x="270.78999999999996" y="694.1999999999998" as="sourcePoint" />
            <mxPoint x="170.78999999999996" y="534.1999999999998" as="targetPoint" />
            <Array as="points">
              <mxPoint x="191" y="504" />
              <mxPoint x="191" y="551" />
            </Array>
          </mxGeometry>
        </mxCell>
        <mxCell id="PTmdwTSmmHxyZHhgt3zp-35" value="" style="shape=image;html=1;verticalLabelPosition=bottom;verticalAlign=top;imageAspect=0;image=img/clipart/Gear_128x128.png" vertex="1" parent="1">
          <mxGeometry x="795" y="360" width="50" height="60" as="geometry" />
        </mxCell>
        <mxCell id="PTmdwTSmmHxyZHhgt3zp-36" value="&lt;font style=&quot;font-size: 14px;&quot;&gt;ETL&lt;/font&gt;" style="text;html=1;strokeColor=none;fillColor=none;align=center;verticalAlign=middle;whiteSpace=wrap;rounded=0;" vertex="1" parent="1">
          <mxGeometry x="740" y="390" width="60" height="30" as="geometry" />
        </mxCell>
        <mxCell id="PTmdwTSmmHxyZHhgt3zp-37" value="" style="html=1;whiteSpace=wrap;shape=isoCube2;backgroundOutline=1;isoAngle=15;" vertex="1" parent="1">
          <mxGeometry x="525" y="110" width="90" height="100" as="geometry" />
        </mxCell>
        <mxCell id="PTmdwTSmmHxyZHhgt3zp-38" value="" style="shape=image;html=1;verticalLabelPosition=bottom;verticalAlign=top;imageAspect=0;image=img/clipart/Gear_128x128.png" vertex="1" parent="1">
          <mxGeometry x="300" y="80" width="50" height="60" as="geometry" />
        </mxCell>
        <mxCell id="PTmdwTSmmHxyZHhgt3zp-40" value="" style="shape=datastore;whiteSpace=wrap;html=1;" vertex="1" parent="1">
          <mxGeometry x="785" y="480" width="70" height="160" as="geometry" />
        </mxCell>
        <mxCell id="PTmdwTSmmHxyZHhgt3zp-41" value="" style="edgeStyle=segmentEdgeStyle;endArrow=classic;html=1;curved=0;rounded=0;endSize=8;startSize=8;entryX=0.971;entryY=0.25;entryDx=0;entryDy=0;entryPerimeter=0;" edge="1" parent="1" target="PTmdwTSmmHxyZHhgt3zp-15">
          <mxGeometry width="50" height="50" relative="1" as="geometry">
            <mxPoint x="820" y="350" as="sourcePoint" />
            <mxPoint x="820" y="280" as="targetPoint" />
            <Array as="points">
              <mxPoint x="820" y="350" />
              <mxPoint x="820" y="290" />
            </Array>
          </mxGeometry>
        </mxCell>
        <mxCell id="PTmdwTSmmHxyZHhgt3zp-43" value="" style="endArrow=classic;html=1;rounded=0;entryX=0.5;entryY=1;entryDx=0;entryDy=0;exitX=0.5;exitY=0;exitDx=0;exitDy=0;" edge="1" parent="1" source="PTmdwTSmmHxyZHhgt3zp-40" target="PTmdwTSmmHxyZHhgt3zp-35">
          <mxGeometry width="50" height="50" relative="1" as="geometry">
            <mxPoint x="430" y="400" as="sourcePoint" />
            <mxPoint x="480" y="350" as="targetPoint" />
          </mxGeometry>
        </mxCell>
        <mxCell id="PTmdwTSmmHxyZHhgt3zp-48" value="Staging Area" style="text;html=1;strokeColor=none;fillColor=none;align=center;verticalAlign=middle;whiteSpace=wrap;rounded=0;" vertex="1" parent="1">
          <mxGeometry x="790" y="550" width="60" height="30" as="geometry" />
        </mxCell>
        <mxCell id="PTmdwTSmmHxyZHhgt3zp-49" value="" style="edgeStyle=segmentEdgeStyle;endArrow=classic;html=1;curved=0;rounded=0;endSize=8;startSize=8;entryX=0.626;entryY=0.986;entryDx=0;entryDy=0;entryPerimeter=0;exitX=0.636;exitY=0.993;exitDx=0;exitDy=0;exitPerimeter=0;" edge="1" parent="1" source="PTmdwTSmmHxyZHhgt3zp-14" target="PTmdwTSmmHxyZHhgt3zp-40">
          <mxGeometry width="50" height="50" relative="1" as="geometry">
            <mxPoint x="720" y="680" as="sourcePoint" />
            <mxPoint x="830" y="650" as="targetPoint" />
            <Array as="points">
              <mxPoint x="720" y="589" />
              <mxPoint x="720" y="700" />
              <mxPoint x="829" y="700" />
            </Array>
          </mxGeometry>
        </mxCell>
        <mxCell id="PTmdwTSmmHxyZHhgt3zp-50" value="" style="html=1;whiteSpace=wrap;shape=isoCube2;backgroundOutline=1;isoAngle=15;" vertex="1" parent="1">
          <mxGeometry x="645" y="110" width="90" height="100" as="geometry" />
        </mxCell>
        <mxCell id="PTmdwTSmmHxyZHhgt3zp-51" value="" style="html=1;whiteSpace=wrap;shape=isoCube2;backgroundOutline=1;isoAngle=15;" vertex="1" parent="1">
          <mxGeometry x="400" y="110" width="90" height="100" as="geometry" />
        </mxCell>
        <mxCell id="PTmdwTSmmHxyZHhgt3zp-53" value="" style="endArrow=none;html=1;rounded=0;entryX=0.007;entryY=0.334;entryDx=0;entryDy=0;entryPerimeter=0;exitX=1.04;exitY=0.358;exitDx=0;exitDy=0;exitPerimeter=0;" edge="1" parent="1" source="PTmdwTSmmHxyZHhgt3zp-51" target="PTmdwTSmmHxyZHhgt3zp-37">
          <mxGeometry width="50" height="50" relative="1" as="geometry">
            <mxPoint x="430" y="260" as="sourcePoint" />
            <mxPoint x="480" y="210" as="targetPoint" />
          </mxGeometry>
        </mxCell>
        <mxCell id="PTmdwTSmmHxyZHhgt3zp-55" value="" style="endArrow=none;html=1;rounded=0;exitX=0.993;exitY=0.382;exitDx=0;exitDy=0;exitPerimeter=0;entryX=0;entryY=0.5;entryDx=0;entryDy=0;entryPerimeter=0;" edge="1" parent="1" source="PTmdwTSmmHxyZHhgt3zp-37" target="PTmdwTSmmHxyZHhgt3zp-50">
          <mxGeometry width="50" height="50" relative="1" as="geometry">
            <mxPoint x="430" y="260" as="sourcePoint" />
            <mxPoint x="640" y="160" as="targetPoint" />
          </mxGeometry>
        </mxCell>
        <mxCell id="PTmdwTSmmHxyZHhgt3zp-56" value="&lt;font style=&quot;font-size: 15px;&quot;&gt;Patients Mart&lt;/font&gt;" style="text;html=1;strokeColor=none;fillColor=none;align=center;verticalAlign=middle;whiteSpace=wrap;rounded=0;" vertex="1" parent="1">
          <mxGeometry x="555" y="60" width="60" height="30" as="geometry" />
        </mxCell>
        <mxCell id="PTmdwTSmmHxyZHhgt3zp-57" value="" style="verticalLabelPosition=bottom;aspect=fixed;html=1;shape=mxgraph.salesforce.analytics2;" vertex="1" parent="1">
          <mxGeometry x="170" y="150" width="60" height="60" as="geometry" />
        </mxCell>
        <mxCell id="PTmdwTSmmHxyZHhgt3zp-58" value="&lt;font style=&quot;font-size: 15px;&quot;&gt;Analytics&lt;/font&gt;" style="text;html=1;strokeColor=none;fillColor=none;align=center;verticalAlign=middle;whiteSpace=wrap;rounded=0;" vertex="1" parent="1">
          <mxGeometry x="100" y="120" width="60" height="30" as="geometry" />
        </mxCell>
        <mxCell id="PTmdwTSmmHxyZHhgt3zp-59" value="" style="endArrow=classic;html=1;rounded=0;exitX=0;exitY=0.5;exitDx=0;exitDy=0;exitPerimeter=0;entryX=1.008;entryY=0.617;entryDx=0;entryDy=0;entryPerimeter=0;" edge="1" parent="1" source="PTmdwTSmmHxyZHhgt3zp-51" target="PTmdwTSmmHxyZHhgt3zp-38">
          <mxGeometry width="50" height="50" relative="1" as="geometry">
            <mxPoint x="430" y="360" as="sourcePoint" />
            <mxPoint x="370" y="130" as="targetPoint" />
          </mxGeometry>
        </mxCell>
        <mxCell id="PTmdwTSmmHxyZHhgt3zp-61" value="" style="endArrow=classic;startArrow=classic;html=1;rounded=0;exitX=0.954;exitY=0.237;exitDx=0;exitDy=0;exitPerimeter=0;entryX=0;entryY=0.75;entryDx=0;entryDy=0;" edge="1" parent="1" source="PTmdwTSmmHxyZHhgt3zp-57" target="PTmdwTSmmHxyZHhgt3zp-38">
          <mxGeometry width="50" height="50" relative="1" as="geometry">
            <mxPoint x="430" y="360" as="sourcePoint" />
            <mxPoint x="480" y="310" as="targetPoint" />
            <Array as="points">
              <mxPoint x="270" y="160" />
            </Array>
          </mxGeometry>
        </mxCell>
        <mxCell id="PTmdwTSmmHxyZHhgt3zp-62" value="" style="endArrow=classic;html=1;rounded=0;entryX=0.5;entryY=1;entryDx=0;entryDy=0;entryPerimeter=0;exitX=0.5;exitY=0;exitDx=0;exitDy=0;exitPerimeter=0;" edge="1" parent="1" source="PTmdwTSmmHxyZHhgt3zp-15" target="PTmdwTSmmHxyZHhgt3zp-50">
          <mxGeometry width="50" height="50" relative="1" as="geometry">
            <mxPoint x="430" y="360" as="sourcePoint" />
            <mxPoint x="480" y="310" as="targetPoint" />
          </mxGeometry>
        </mxCell>
        <mxCell id="PTmdwTSmmHxyZHhgt3zp-67" value="" style="edgeStyle=segmentEdgeStyle;endArrow=classic;html=1;curved=0;rounded=0;endSize=8;startSize=8;entryX=0;entryY=0.697;entryDx=0;entryDy=0;entryPerimeter=0;" edge="1" parent="1" source="PTmdwTSmmHxyZHhgt3zp-57" target="PTmdwTSmmHxyZHhgt3zp-11">
          <mxGeometry width="50" height="50" relative="1" as="geometry">
            <mxPoint x="260" y="210" as="sourcePoint" />
            <mxPoint x="350" y="530" as="targetPoint" />
            <Array as="points">
              <mxPoint x="260" y="180" />
              <mxPoint x="260" y="531" />
            </Array>
          </mxGeometry>
        </mxCell>
        <mxCell id="PTmdwTSmmHxyZHhgt3zp-68" value="&lt;font style=&quot;font-size: 14px;&quot;&gt;Patients Old Records&lt;/font&gt;" style="text;html=1;strokeColor=none;fillColor=none;align=center;verticalAlign=middle;whiteSpace=wrap;rounded=0;" vertex="1" parent="1">
          <mxGeometry x="180" y="660" width="60" height="30" as="geometry" />
        </mxCell>
        <mxCell id="PTmdwTSmmHxyZHhgt3zp-69" value="&lt;font style=&quot;font-size: 14px;&quot;&gt;Generate Prescriptions&lt;/font&gt;" style="text;html=1;strokeColor=none;fillColor=none;align=center;verticalAlign=middle;whiteSpace=wrap;rounded=0;" vertex="1" parent="1">
          <mxGeometry x="150" y="560" width="60" height="30" as="geometry" />
        </mxCell>
        <mxCell id="PTmdwTSmmHxyZHhgt3zp-70" value="Age" style="text;html=1;strokeColor=none;fillColor=none;align=center;verticalAlign=middle;whiteSpace=wrap;rounded=0;" vertex="1" parent="1">
          <mxGeometry x="411.25" y="120" width="60" height="30" as="geometry" />
        </mxCell>
        <mxCell id="PTmdwTSmmHxyZHhgt3zp-71" value="Symptoms" style="text;html=1;strokeColor=none;fillColor=none;align=center;verticalAlign=middle;whiteSpace=wrap;rounded=0;" vertex="1" parent="1">
          <mxGeometry x="540" y="120" width="60" height="30" as="geometry" />
        </mxCell>
        <mxCell id="PTmdwTSmmHxyZHhgt3zp-72" value="Disease" style="text;html=1;strokeColor=none;fillColor=none;align=center;verticalAlign=middle;whiteSpace=wrap;rounded=0;" vertex="1" parent="1">
          <mxGeometry x="660" y="120" width="60" height="30" as="geometry" />
        </mxCell>
        <mxCell id="PTmdwTSmmHxyZHhgt3zp-73" value="Book an Appointment" style="text;html=1;strokeColor=none;fillColor=none;align=center;verticalAlign=middle;whiteSpace=wrap;rounded=0;" vertex="1" parent="1">
          <mxGeometry x="350" y="350" width="60" height="30" as="geometry" />
        </mxCell>
        <mxCell id="PTmdwTSmmHxyZHhgt3zp-74" value="Appointment&lt;br&gt;Confirmations" style="text;html=1;strokeColor=none;fillColor=none;align=center;verticalAlign=middle;whiteSpace=wrap;rounded=0;" vertex="1" parent="1">
          <mxGeometry x="477.6" y="350" width="60" height="30" as="geometry" />
        </mxCell>
        <mxCell id="PTmdwTSmmHxyZHhgt3zp-76" value="Data Kept Intact for 30 Days" style="text;html=1;strokeColor=none;fillColor=none;align=center;verticalAlign=middle;whiteSpace=wrap;rounded=0;" vertex="1" parent="1">
          <mxGeometry x="630" y="610" width="60" height="30" as="geometry" />
        </mxCell>
        <mxCell id="PTmdwTSmmHxyZHhgt3zp-77" value="Data Moved to Staging Area after 30 days" style="text;html=1;strokeColor=none;fillColor=none;align=center;verticalAlign=middle;whiteSpace=wrap;rounded=0;" vertex="1" parent="1">
          <mxGeometry x="860" y="540" width="60" height="30" as="geometry" />
        </mxCell>
      </root>
    </mxGraphModel>
  </diagram>
</mxfile>
